<svg width="512" height="512" viewBox="0 0 512 512" fill="none" xmlns="http://www.w3.org/2000/svg">
<g clip-path="url(#clip0_7202_6613)">
<rect width="16.4839" height="16.4839" transform="translate(227.434 44.4951)" fill="white"/>
<rect width="16.4839" height="16.4839" transform="translate(207.105 64.8213)" fill="white"/>
<rect width="16.4839" height="16.4839" transform="translate(227.434 64.8213)" fill="white"/>
<rect width="16.4839" height="16.4839" transform="translate(186.777 85.1477)" fill="white"/>
<rect width="16.4839" height="16.4839" transform="translate(207.105 85.1477)" fill="white"/>
<rect width="16.4839" height="16.4839" transform="translate(227.434 85.1477)" fill="white"/>
<rect width="16.4839" height="16.4839" transform="translate(166.453 105.474)" fill="white"/>
<rect width="16.4839" height="16.4839" transform="translate(186.777 105.474)" fill="white"/>
<rect width="16.4839" height="16.4839" transform="translate(207.105 105.474)" fill="white"/>
<rect width="16.4839" height="16.4839" transform="translate(227.434 105.474)" fill="white"/>
<rect width="16.4839" height="16.4839" transform="translate(146.125 125.8)" fill="white"/>
<rect width="16.4839" height="16.4839" transform="translate(166.453 125.8)" fill="white"/>
<rect width="16.4839" height="16.4839" transform="translate(186.777 125.8)" fill="white"/>
<rect width="16.4839" height="16.4839" transform="translate(207.105 125.8)" fill="white"/>
<rect width="16.4839" height="16.4839" transform="translate(227.434 125.8)" fill="white"/>
<rect width="16.4839" height="16.4839" transform="translate(146.125 146.126)" fill="white"/>
<rect width="16.4839" height="16.4839" transform="translate(166.453 146.126)" fill="white"/>
<rect width="16.4839" height="16.4839" transform="translate(186.777 146.126)" fill="white"/>
<rect width="16.4839" height="16.4839" transform="translate(207.105 146.126)" fill="white"/>
<rect width="16.4839" height="16.4839" transform="translate(227.434 146.126)" fill="white"/>
<rect width="16.4839" height="16.4839" transform="translate(146.125 166.453)" fill="white"/>
<rect width="16.4839" height="16.4839" transform="translate(166.453 166.453)" fill="white"/>
<rect width="16.4839" height="16.4839" transform="translate(186.777 166.453)" fill="white"/>
<rect width="16.4839" height="16.4839" transform="translate(207.105 166.453)" fill="white"/>
<rect width="16.4839" height="16.4839" transform="translate(227.434 166.453)" fill="white"/>
<rect width="16.4839" height="16.4839" transform="translate(146.125 186.779)" fill="white"/>
<rect width="16.4839" height="16.4839" transform="translate(166.453 186.779)" fill="white"/>
<rect width="16.4839" height="16.4839" transform="translate(186.777 186.779)" fill="white"/>
<rect width="16.4839" height="16.4839" transform="translate(207.105 186.779)" fill="white"/>
<rect width="16.4839" height="16.4839" transform="translate(227.434 186.779)" fill="white"/>
<rect width="16.4839" height="16.4839" transform="translate(146.125 207.105)" fill="white"/>
<rect width="16.4839" height="16.4839" transform="translate(166.453 207.105)" fill="white"/>
<rect width="16.4839" height="16.4839" transform="translate(186.777 207.105)" fill="white"/>
<rect width="16.4839" height="16.4839" transform="translate(207.105 207.105)" fill="white"/>
<rect width="16.4839" height="16.4839" transform="translate(227.434 207.105)" fill="white"/>
<rect width="16.4839" height="16.4839" transform="translate(146.125 227.432)" fill="white"/>
<rect width="16.4839" height="16.4839" transform="translate(166.453 227.432)" fill="white"/>
<rect width="16.4839" height="16.4839" transform="translate(186.777 227.432)" fill="white"/>
<rect width="16.4839" height="16.4839" transform="translate(207.105 227.432)" fill="white"/>
<rect width="16.4839" height="16.4839" transform="translate(227.434 227.432)" fill="white"/>
<rect width="16.4839" height="16.4839" transform="translate(349.391 227.432)" fill="white"/>
<rect width="16.4839" height="16.4839" transform="translate(146.125 247.758)" fill="white"/>
<rect width="16.4839" height="16.4839" transform="translate(166.453 247.758)" fill="white"/>
<rect width="16.4839" height="16.4839" transform="translate(186.777 247.758)" fill="white"/>
<rect width="16.4839" height="16.4839" transform="translate(207.105 247.758)" fill="white"/>
<rect width="16.4839" height="16.4839" transform="translate(227.434 247.758)" fill="white"/>
<rect width="16.4839" height="16.4839" transform="translate(329.062 247.758)" fill="white"/>
<rect width="16.4839" height="16.4839" transform="translate(349.391 247.758)" fill="white"/>
<rect width="16.4839" height="16.4839" transform="translate(146.125 268.084)" fill="white"/>
<rect width="16.4839" height="16.4839" transform="translate(166.453 268.084)" fill="white"/>
<rect width="16.4839" height="16.4839" transform="translate(186.777 268.084)" fill="white"/>
<rect width="16.4839" height="16.4839" transform="translate(207.105 268.084)" fill="white"/>
<rect width="16.4839" height="16.4839" transform="translate(227.434 268.084)" fill="white"/>
<rect width="16.4839" height="16.4839" transform="translate(308.738 268.084)" fill="white"/>
<rect width="16.4839" height="16.4839" transform="translate(329.062 268.084)" fill="white"/>
<rect width="16.4839" height="16.4839" transform="translate(349.391 268.084)" fill="white"/>
<rect width="16.4839" height="16.4839" transform="translate(146.125 288.411)" fill="white"/>
<rect width="16.4839" height="16.4839" transform="translate(166.453 288.411)" fill="white"/>
<rect width="16.4839" height="16.4839" transform="translate(186.777 288.411)" fill="white"/>
<rect width="16.4839" height="16.4839" transform="translate(207.105 288.411)" fill="white"/>
<rect width="16.4839" height="16.4839" transform="translate(227.434 288.411)" fill="white"/>
<rect width="16.4839" height="16.4839" transform="translate(288.41 288.411)" fill="white"/>
<rect width="16.4839" height="16.4839" transform="translate(308.738 288.411)" fill="white"/>
<rect width="16.4839" height="16.4839" transform="translate(329.062 288.411)" fill="white"/>
<rect width="16.4839" height="16.4839" transform="translate(349.391 288.411)" fill="white"/>
<rect width="16.4839" height="16.4839" transform="translate(146.125 308.737)" fill="white"/>
<rect width="16.4839" height="16.4839" transform="translate(166.453 308.737)" fill="white"/>
<rect width="16.4839" height="16.4839" transform="translate(186.777 308.737)" fill="white"/>
<rect width="16.4839" height="16.4839" transform="translate(207.105 308.737)" fill="white"/>
<rect width="16.4839" height="16.4839" transform="translate(227.434 308.737)" fill="white"/>
<rect width="16.4839" height="16.4839" transform="translate(268.086 308.737)" fill="white"/>
<rect width="16.4839" height="16.4839" transform="translate(288.41 308.737)" fill="white"/>
<rect width="16.4839" height="16.4839" transform="translate(308.738 308.737)" fill="white"/>
<rect width="16.4839" height="16.4839" transform="translate(329.062 308.737)" fill="white"/>
<rect width="16.4839" height="16.4839" transform="translate(349.391 308.737)" fill="white"/>
<rect width="16.4839" height="16.4839" transform="translate(146.125 329.063)" fill="white"/>
<rect width="16.4839" height="16.4839" transform="translate(166.453 329.063)" fill="white"/>
<rect width="16.4839" height="16.4839" transform="translate(186.777 329.063)" fill="white"/>
<rect width="16.4839" height="16.4839" transform="translate(207.105 329.063)" fill="white"/>
<rect width="16.4839" height="16.4839" transform="translate(227.434 329.063)" fill="white"/>
<rect width="16.4839" height="16.4839" transform="translate(268.086 329.063)" fill="white"/>
<rect width="16.4839" height="16.4839" transform="translate(288.41 329.063)" fill="white"/>
<rect width="16.4839" height="16.4839" transform="translate(308.738 329.063)" fill="white"/>
<rect width="16.4839" height="16.4839" transform="translate(329.062 329.063)" fill="white"/>
<rect width="16.4839" height="16.4839" transform="translate(349.391 329.063)" fill="white"/>
<rect width="16.4839" height="16.4839" transform="translate(146.125 349.39)" fill="white"/>
<rect width="16.4839" height="16.4839" transform="translate(166.453 349.39)" fill="white"/>
<rect width="16.4839" height="16.4839" transform="translate(186.777 349.39)" fill="white"/>
<rect width="16.4839" height="16.4839" transform="translate(207.105 349.39)" fill="white"/>
<rect width="16.4839" height="16.4839" transform="translate(227.434 349.39)" fill="white"/>
<rect width="16.4839" height="16.4839" transform="translate(268.086 349.39)" fill="white"/>
<rect width="16.4839" height="16.4839" transform="translate(288.41 349.39)" fill="white"/>
<rect width="16.4839" height="16.4839" transform="translate(308.738 349.39)" fill="white"/>
<rect width="16.4839" height="16.4839" transform="translate(329.062 349.39)" fill="white"/>
<rect width="16.4839" height="16.4839" transform="translate(349.391 349.39)" fill="white"/>
<rect width="16.4839" height="16.4839" transform="translate(146.125 369.716)" fill="white"/>
<rect width="16.4839" height="16.4839" transform="translate(166.453 369.716)" fill="white"/>
<rect width="16.4839" height="16.4839" transform="translate(186.777 369.716)" fill="white"/>
<rect width="16.4839" height="16.4839" transform="translate(207.105 369.716)" fill="white"/>
<rect width="16.4839" height="16.4839" transform="translate(268.086 369.716)" fill="white"/>
<rect width="16.4839" height="16.4839" transform="translate(288.41 369.716)" fill="white"/>
<rect width="16.4839" height="16.4839" transform="translate(308.738 369.716)" fill="white"/>
<rect width="16.4839" height="16.4839" transform="translate(329.062 369.716)" fill="white"/>
<rect width="16.4839" height="16.4839" transform="translate(146.125 390.042)" fill="white"/>
<rect width="16.4839" height="16.4839" transform="translate(166.453 390.042)" fill="white"/>
<rect width="16.4839" height="16.4839" transform="translate(186.777 390.042)" fill="white"/>
<rect width="16.4839" height="16.4839" transform="translate(268.086 390.042)" fill="white"/>
<rect width="16.4839" height="16.4839" transform="translate(288.41 390.042)" fill="white"/>
<rect width="16.4839" height="16.4839" transform="translate(308.738 390.042)" fill="white"/>
<rect width="16.4839" height="16.4839" transform="translate(146.125 410.368)" fill="white"/>
<rect width="16.4839" height="16.4839" transform="translate(166.453 410.368)" fill="white"/>
<rect width="16.4839" height="16.4839" transform="translate(268.086 410.368)" fill="white"/>
<rect width="16.4839" height="16.4839" transform="translate(288.41 410.368)" fill="white"/>
<rect width="16.4839" height="16.4839" transform="translate(146.125 430.695)" fill="white"/>
<rect width="16.4839" height="16.4839" transform="translate(268.086 430.695)" fill="white"/>
</g>
<defs>
<clipPath id="clip0_7202_6613">
<rect width="512" height="512" fill="white"/>
</clipPath>
</defs>
</svg>
